HIERARCHY
ROOT Hips
{
    OFFSET -0.1800 -22.3300 2.8200
    CHANNELS 6 Xposition Yposition Zposition Zrotation Yrotation Xrotation 
    JOINT LeftUpLeg
    {
        OFFSET -0.6800 6.9500 -9.1400
        CHANNELS 3 Zrotation Yrotation Xrotation
        JOINT LeftLeg
        {
            OFFSET -0.4500 3.4300 -37.5200
            CHANNELS 3 Zrotation Yrotation Xrotation
            JOINT LeftFoot
            {
                OFFSET -4.3700 -1.3600 -39.8000
                CHANNELS 3 Zrotation Yrotation Xrotation
                JOINT LeftToe
                {
                    OFFSET 11.9300 2.6400 -5.5800
                    CHANNELS 3 Zrotation Yrotation Xrotation
                    End Site
                    {
                        OFFSET 0.0000 0.0000 0.0000
                    }
                }
            }
        }
    }
    JOINT RightUpLeg
    {
        OFFSET -0.4300 -6.7700 -9.0500
        CHANNELS 3 Zrotation Yrotation Xrotation
        JOINT RightLeg
        {
            OFFSET -0.8900 -3.8300 -38.2600
            CHANNELS 3 Zrotation Yrotation Xrotation
            JOINT RightFoot
            {
                OFFSET -4.2300 1.5800 -39.8400
                CHANNELS 3 Zrotation Yrotation Xrotation
                JOINT RightToe
                {
                    OFFSET 12.3300 -2.5400 -4.8100
                    CHANNELS 3 Zrotation Yrotation Xrotation
                    End Site
                    {
                        OFFSET 0.0000 0.0000 0.0000
                    }
                }
            }
        }
    }
    JOINT Spine
    {
        OFFSET -2.6700 -0.2500 10.9000
        CHANNELS 3 Zrotation Yrotation Xrotation
        JOINT Spine1
        {
            OFFSET 0.1100 0.5500 13.5200
            CHANNELS 3 Zrotation Yrotation Xrotation
            JOINT Spine2
            {
                OFFSET 2.5400 0.1500 5.2900
                CHANNELS 3 Zrotation Yrotation Xrotation
                JOINT Neck
                {
                    OFFSET -4.2900 -0.2800 21.3900
                    CHANNELS 3 Zrotation Yrotation Xrotation
                    JOINT Head
                    {
                        OFFSET 5.1300 0.5200 6.5000
                        CHANNELS 3 Zrotation Yrotation Xrotation
                        End Site
                        {
                            OFFSET 0.0000 0.0000 0.0000
                        }
                    }
                }
                JOINT LeftShoulder
                {
                    OFFSET -3.4100 7.8800 12.1700
                    CHANNELS 3 Zrotation Yrotation Xrotation
                    JOINT LeftArm
                    {
                        OFFSET -0.8900 9.1000 3.0500
                        CHANNELS 3 Zrotation Yrotation Xrotation
                        JOINT LeftForeArm
                        {
                            OFFSET -2.7500 25.9600 -1.2800
                            CHANNELS 3 Zrotation Yrotation Xrotation
                            JOINT LeftHand
                            {
                                OFFSET -1.4900 8.4000 -0.8200
                                CHANNELS 3 Zrotation Yrotation Xrotation
                                End Site
                                {
                                    OFFSET 0.0000 0.0000 0.0000
                                }
                            }
                        }
                    }
                }
                JOINT RightShoulder
                {
                    OFFSET -3.8600 -8.1800 11.8800
                    CHANNELS 3 Zrotation Yrotation Xrotation
                    JOINT RightArm
                    {
                        OFFSET -0.9100 -9.6000 3.2600
                        CHANNELS 3 Zrotation Yrotation Xrotation
                        JOINT RightForeArm
                        {
                            OFFSET -2.1400 -25.3700 -1.3300
                            CHANNELS 3 Zrotation Yrotation Xrotation
                            JOINT RightHand
                            {
                                OFFSET -1.0300 -8.4600 -0.6100
                                CHANNELS 3 Zrotation Yrotation Xrotation
                                End Site
                                {
                                    OFFSET 0.0000 0.0000 0.0000
                                }
                            }
                        }
                    }
                }
            }
        }
    }
}
MOTION
Frames: 8
Frame Time: 0.016667
-0.005077 -0.000134 -0.003518 53.227722 9.827767 3.042221 -7.873655 -9.865189 -1.630724 -4.242121 4.202649 -7.945627 14.713791 -7.993110 2.313009 -17.126463 -3.166747 -14.243860 1.376215 -16.791098 -5.825737 7.060943 0.357284 -1.929089 2.399269 7.053448 21.397148 0.822824 6.673808 0.062485 -3.378758 17.481585 7.179171 -4.374047 3.031786 13.184763 -0.438246 1.357504 2.131796 3.660459 -8.013771 -1.104763 -4.564216 -1.719450 1.182787 -31.407591 -15.725666 11.704300 -27.031412 -14.804634 3.867244 -24.913258 -25.010181 19.580700 5.004732 30.284935 23.999100 19.114021 2.466770 11.983088 25.680229 -1.116300 51.083549 20.850992 6.120521 -4.972089 0.704910 -6.019497 8.354946 
-0.009011 0.001070 -0.008161 53.082291 10.548406 2.724769 -7.415238 -12.760156 -1.448452 -1.394617 3.407842 -7.371006 16.555508 -4.610985 1.764544 -16.173424 -1.420669 -12.133640 0.952846 -18.256388 -5.306261 6.080647 -1.442537 -1.884847 4.340593 7.712010 18.508753 -2.434683 7.245289 -0.986742 -3.548577 20.370457 8.398423 -5.880537 1.384622 14.317242 -1.420088 2.106652 2.164794 2.697636 -7.570823 0.675365 -6.049342 3.452644 1.003604 -30.830824 -15.194703 13.892376 -25.281845 -16.489614 7.456526 -15.801941 -28.506384 18.032581 4.990197 30.158640 26.127773 17.092983 2.999599 11.977832 27.755041 -1.040320 52.675808 24.088591 8.856481 -7.800787 1.113283 -3.487408 5.909291 
-0.012183 0.002871 -0.013820 53.540340 10.779468 2.471210 -7.415238 -12.760156 -1.448452 -1.394617 3.407842 -7.371006 16.555508 -4.610985 1.764544 -16.173424 -1.420669 -12.133640 0.952846 -18.256388 -5.306261 6.080647 -1.442537 -1.884847 4.340593 7.712010 18.508753 -2.434683 7.245289 -0.986742 -3.548577 20.370457 8.398423 -5.880537 1.384622 14.317242 -1.420088 2.106652 2.164794 2.697636 -7.570823 0.675365 -6.049342 3.452644 1.003604 -30.830824 -15.194703 13.892376 -25.281845 -16.489614 7.456526 -15.801941 -28.506384 18.032581 4.990197 30.158640 26.127773 17.092983 2.999599 11.977832 27.755041 -1.040320 52.675808 24.088591 8.856481 -7.800787 1.113283 -3.487408 5.909291 
-0.015215 0.005305 -0.018053 54.120472 10.961296 2.226409 -6.610499 -13.751970 -1.945971 0.892517 2.064216 -6.501694 18.333281 -1.581256 0.793425 -18.886911 -1.938657 -10.947250 0.341544 -17.322229 -4.802833 5.564908 -3.994666 -2.323678 5.543180 8.319884 14.822473 -3.887156 7.189821 -4.703071 -3.836351 22.044889 10.329559 -7.313390 0.366176 15.154627 -2.243303 2.500767 2.231788 1.188263 -5.624215 1.948492 -7.115110 7.477176 1.012141 -29.139784 -14.118299 14.483848 -24.064026 -17.633469 9.401034 -9.368587 -31.397385 15.789166 3.969168 30.689074 27.503817 14.709320 2.878748 12.086677 28.089684 0.108087 53.082073 27.703045 10.368644 -9.734767 2.404673 1.031334 2.608790 
-0.018660 0.007750 -0.020098 54.325768 10.861053 1.884114 -6.610499 -13.751970 -1.945971 0.892517 2.064216 -6.501694 18.333281 -1.581256 0.793425 -18.886911 -1.938657 -10.947250 0.341544 -17.322229 -4.802833 5.564908 -3.994666 -2.323678 5.543180 8.319884 14.822473 -3.887156 7.189821 -4.703071 -3.836351 22.044889 10.329559 -7.313390 0.366176 15.154627 -2.243303 2.500767 2.231788 1.188263 -5.624215 1.948492 -7.115110 7.477176 1.012141 -29.139784 -14.118299 14.483848 -24.064026 -17.633469 9.401034 -9.368587 -31.397385 15.789166 3.969168 30.689074 27.503817 14.709320 2.878748 12.086677 28.089684 0.108087 53.082073 27.703045 10.368644 -9.734767 2.404673 1.031334 2.608790 
-0.021400 0.009865 -0.020832 54.733299 10.939746 1.518302 -5.246064 -12.760410 -2.790450 1.879671 0.444937 -6.042168 19.253523 -4.740491 0.661449 -22.737337 -4.632243 -9.971891 0.105784 -16.491354 -4.151254 5.898234 -5.356143 -2.507185 5.276474 9.282931 10.503879 -5.684757 4.580397 -3.880346 -3.652660 23.001251 12.509162 -7.635035 0.092506 15.906021 -2.403438 2.513919 2.380372 -0.492507 -2.701906 2.351093 -7.777883 9.401081 1.305689 -27.422220 -13.293257 13.594256 -22.887526 -19.315413 10.621347 -4.660580 -31.525354 12.301700 2.909966 30.928150 25.452246 13.273430 3.132050 12.435488 26.516577 0.584701 50.922264 29.987671 10.971701 -9.089372 3.138073 4.818428 -0.613000 
-0.023070 0.012146 -0.021265 55.155392 10.515019 1.425687 -5.246064 -12.760410 -2.790450 1.879671 0.444937 -6.042168 19.253523 -4.740491 0.661449 -22.737337 -4.632243 -9.971891 0.105784 -16.491354 -4.151254 5.898234 -5.356143 -2.507185 5.276474 9.282931 10.503879 -5.684757 4.580397 -3.880346 -3.652660 23.001251 12.509162 -7.635035 0.092506 15.906021 -2.403438 2.513919 2.380372 -0.492507 -2.701906 2.351093 -7.777883 9.401081 1.305689 -27.422220 -13.293257 13.594256 -22.887526 -19.315413 10.621347 -4.660580 -31.525354 12.301700 2.909966 30.928150 25.452246 13.273430 3.132050 12.435488 26.516577 0.584701 50.922264 29.987671 10.971701 -9.089372 3.138073 4.818428 -0.613000 
-0.023551 0.014834 -0.021671 55.503716 9.934117 1.475982 -4.757468 -10.659878 -4.132026 2.518469 -1.499945 -4.769493 17.645123 -3.389456 2.655017 -23.747345 -5.807638 -8.098181 -0.287244 -15.833187 -3.743059 4.994558 -3.758078 -2.859771 3.786766 8.019239 7.513811 -5.629272 4.068005 -1.576236 -3.475096 24.037868 13.529576 -7.583948 -0.101510 16.391697 -2.664111 2.901799 2.843855 -2.473298 0.325707 1.997634 -7.567742 10.633603 1.512010 -26.409367 -12.233860 12.363785 -21.519966 -20.903908 10.623416 -0.744987 -30.859531 9.204282 2.207172 31.866863 20.658043 12.516504 3.512353 12.682982 24.335913 0.318625 48.164505 32.639072 10.974544 -9.128179 2.632932 7.311254 -3.896170 
